<svg class="dSVG" version="1.1" xmlns="http://www.w3.org/2000/svg" viewBox="0 0 330.7843017578125 218.0392303466797" width="250">
<g transform="translate(255.0980224609375 22.745086669921875) rotate(0 -89.70587158203125 86.27452850341797)" stroke="none">
<path fill="#fff" d="M -0.75,3.03 Q -0.75,3.03 -6.37,1.55 -11.99,0.08 -20.24,-1.68 -28.49,-3.44 -40.37,-5.03 -52.25,-6.63 -67.39,-7.60 -82.54,-8.57 -97.42,-8.99 -112.30,-9.42 -125.79,-7.92 -139.28,-6.42 -151.39,-3.28 -163.50,-0.14 -175.36,4.25 -187.22,8.65 -196.36,13.83 -205.49,19.02 -212.68,24.53 -219.88,30.05 -225.09,35.67 -230.31,41.29 -233.85,46.92 -237.39,52.55 -238.81,58.06 -240.23,63.57 -240.86,69.51 -241.49,75.45 -240.11,81.61 -238.72,87.77 -236.52,92.85 -234.31,97.93 -229.56,103.85 -224.81,109.77 -218.28,116.84 -211.74,123.92 -203.96,130.81 -196.17,137.70 -186.99,144.55 -177.81,151.39 -167.49,157.64 -157.18,163.89 -145.87,168.75 -134.56,173.61 -120.38,176.19 -106.19,178.77 -89.51,179.60 -72.83,180.43 -54.67,177.42 -36.51,174.42 -18.78,167.57 -1.06,160.72 12.87,152.51 26.80,144.31 36.31,136.67 45.82,129.02 50.61,123.63 55.40,118.24 57.58,113.39 59.76,108.53 60.68,102.99 61.59,97.46 60.88,90.80 60.18,84.14 58.22,76.57 56.27,68.99 53.51,62.20 50.75,55.40 47.93,50.32 45.11,45.25 42.26,41.18 39.41,37.10 35.75,33.21 32.09,29.32 26.90,24.58 21.70,19.84 15.10,15.37 8.50,10.91 2.41,7.92 -3.68,4.94 -7.64,3.39 -11.61,1.85 -13.43,1.41 -15.25,0.97 -15.69,0.71 -16.12,0.46 -16.45,0.07 -16.78,-0.30 -16.97,-0.77 -17.17,-1.24 -17.20,-1.75 -17.23,-2.26 -17.09,-2.75 -16.96,-3.24 -16.68,-3.66 -16.40,-4.08 -16.00,-4.39 -15.59,-4.70 -15.11,-4.86 -14.63,-5.03 -14.13,-5.03 -13.62,-5.04 -13.14,-4.88 -12.66,-4.72 -12.25,-4.41 -11.84,-4.11 -11.56,-3.69 -11.27,-3.27 -11.13,-2.79 -10.99,-2.30 -11.02,-1.79 -11.04,-1.28 -11.22,-0.81 -11.41,-0.34 -11.74,0.04 -12.06,0.43 -12.49,0.69 -12.93,0.96 -13.42,1.07 -13.92,1.18 -14.42,1.13 -14.93,1.08 -15.39,0.87 -15.85,0.66 -16.22,0.31 -16.59,-0.02 -16.83,-0.47 -17.07,-0.92 -17.16,-1.42 -17.24,-1.92 -17.16,-2.42 -17.09,-2.92 -16.85,-3.37 -16.62,-3.82 -16.25,-4.17 -15.88,-4.52 -15.42,-4.74 -14.97,-4.95 -14.46,-5.01 -13.96,-5.07 -13.46,-4.96 -12.96,-4.86 -12.97,-4.86 -12.97,-4.86 -11.33,-3.95 -9.70,-3.03 -5.53,-1.40 -1.36,0.22 5.04,3.39 11.44,6.56 18.34,11.26 25.24,15.96 30.58,20.85 35.93,25.73 39.82,29.91 43.72,34.10 46.71,38.40 49.70,42.71 52.66,48.06 55.61,53.42 58.49,60.55 61.36,67.69 63.38,75.65 65.40,83.61 66.09,90.96 66.77,98.30 65.66,104.49 64.54,110.69 61.95,116.19 59.36,121.69 54.24,127.40 49.12,133.11 39.29,140.97 29.47,148.84 15.15,157.23 0.83,165.62 -17.40,172.61 -35.64,179.60 -54.36,182.64 -73.07,185.67 -90.11,184.80 -107.14,183.94 -121.87,181.19 -136.61,178.44 -148.25,173.42 -159.90,168.39 -170.42,162.00 -180.95,155.61 -190.31,148.62 -199.66,141.64 -207.63,134.56 -215.60,127.49 -222.27,120.26 -228.93,113.04 -234.03,106.54 -239.12,100.04 -241.49,94.47 -243.86,88.89 -245.29,81.93 -246.72,74.97 -246.02,68.59 -245.32,62.22 -243.60,56.01 -241.87,49.79 -238.03,43.75 -234.18,37.71 -228.64,31.78 -223.10,25.86 -215.61,20.13 -208.11,14.40 -198.60,9.03 -189.09,3.66 -176.97,-0.83 -164.85,-5.33 -152.37,-8.56 -139.89,-11.79 -126.02,-13.33 -112.16,-14.87 -97.18,-14.48 -82.19,-14.09 -66.85,-13.15 -51.51,-12.22 -39.41,-10.66 -27.31,-9.10 -18.93,-7.40 -10.54,-5.71 -4.89,-4.37 0.75,-3.03 1.10,-2.89 1.46,-2.76 1.77,-2.54 2.07,-2.33 2.32,-2.04 2.57,-1.76 2.75,-1.43 2.92,-1.09 3.01,-0.73 3.10,-0.36 3.10,0.01 3.10,0.38 3.00,0.75 2.91,1.11 2.74,1.45 2.56,1.78 2.31,2.06 2.06,2.34 1.75,2.55 1.44,2.77 1.08,2.90 0.73,3.03 0.36,3.08 -0.01,3.12 -0.38,3.07 -0.75,3.03 -0.75,3.03 L -0.75,3.03 Z"></path></g><g stroke-linecap="round" transform="translate(16.935788379076826 76.38627736804591) rotate(0 7.164473768715482 17.672379532473286)"><path d="M-0.19 -0.67 L13.61 -0.27 L15.17 35.05 L0.74 34.99" stroke="none" stroke-width="0" fill="#099268"></path><path d="M0 0 C4.15 0.06, 7.89 -0.28, 14.33 0 M0 0 C4.12 0.2, 7.91 0.03, 14.33 0 M14.33 0 C13.88 12.25, 15.01 21.98, 14.33 35.34 M14.33 0 C14.84 8.38, 14.55 16.21, 14.33 35.34 M14.33 35.34 C10.17 36.06, 4.29 35.85, 0 35.34 M14.33 35.34 C10.73 35.44, 7.81 35.25, 0 35.34 M0 35.34 C0.99 27.07, -0.2 19.96, 0 0 M0 35.34 C-0.07 24.66, 0.26 14.42, 0 0" stroke="#000" stroke-width="1" fill="none"></path></g><g stroke-linecap="round" transform="translate(31.26473591650779 55.84810535454778) rotate(0 8.597377443074606 37.97174665665597)"><path d="M-0.05 0.23 L17.96 -0.48 L16.94 76.61 L0 75.13" stroke="none" stroke-width="0" fill="#099268"></path><path d="M0 0 C5.56 -0.43, 11.13 0.09, 17.19 0 M0 0 C5.01 0.01, 10.15 -0.02, 17.19 0 M17.19 0 C17.6 16.17, 17.64 34.5, 17.19 75.94 M17.19 0 C16.83 20.14, 16.64 40.56, 17.19 75.94 M17.19 75.94 C10.89 76.73, 4.44 75.27, 0 75.94 M17.19 75.94 C12.31 76.2, 6.95 75.82, 0 75.94 M0 75.94 C-0.18 48.78, 0.02 20.42, 0 0 M0 75.94 C0.44 51.09, 0.24 26.3, 0 0" stroke="#000" stroke-width="1" fill="none"></path></g><g stroke-linecap="round" transform="translate(47.98185128863952 43.42968613780005) rotate(0 11.224350167090677 52.06187443707822)"><path d="M1.94 -0.07 L22.24 -1.71 L21.23 104.59 L0.07 105.57" stroke="none" stroke-width="0" fill="#099268"></path><path d="M0 0 C6.68 1.5, 15.24 1.14, 22.45 0 M0 0 C5.59 0.68, 10.18 -0.71, 22.45 0 M22.45 0 C24.02 39.29, 24.59 77.72, 22.45 104.12 M22.45 0 C21.94 34.56, 21.82 66.45, 22.45 104.12 M22.45 104.12 C18.75 104.57, 11.86 105.46, 0 104.12 M22.45 104.12 C16.04 104.49, 6.9 104.23, 0 104.12 M0 104.12 C-2.49 76.1, -0.51 46.93, 0 0 M0 104.12 C-0.95 67.54, 0.14 28.71, 0 0" stroke="#000" stroke-width="1" fill="none"></path></g><g stroke-linecap="round" transform="translate(70.43055162282087 29.10072373267576) rotate(0 12.418434084441003 69.25663675707398)"><path d="M0.22 0.05 L26.36 -1.36 L24.5 137.95 L-1.97 137.19" stroke="none" stroke-width="0" fill="#099268"></path><path d="M0 0 C9.44 0.2, 17.04 -1.87, 24.84 0 M0 0 C6.3 -0.28, 13.82 0.49, 24.84 0 M24.84 0 C24.1 40.05, 25.04 76.98, 24.84 138.51 M24.84 0 C24.19 53.14, 24.57 104.26, 24.84 138.51 M24.84 138.51 C17.99 139.05, 6.6 138.47, 0 138.51 M24.84 138.51 C14.58 139.09, 4.83 138.93, 0 138.51 M0 138.51 C1.89 98.22, -0.74 61.98, 0 0 M0 138.51 C0.26 106.05, 0.62 73.03, 0 0" stroke="#000" stroke-width="1" fill="none"></path></g><g stroke-linecap="round" transform="translate(95.26741979170288 20.503331421907944) rotate(0 13.612518001791386 80.0033622778405)"><path d="M1.23 -0.36 L27.37 -0.98 L27.44 161.81 L-1.72 161.8" stroke="none" stroke-width="0" fill="#099268"></path><path d="M0 0 C7.07 0.16, 18.27 -0.33, 27.23 0 M0 0 C10.19 -0.45, 20.48 0.52, 27.23 0 M27.23 0 C27.4 59.74, 29.23 117.42, 27.23 160.01 M27.23 0 C27.16 57.57, 27.44 114.48, 27.23 160.01 M27.23 160.01 C19.02 158.83, 7.89 160.02, 0 160.01 M27.23 160.01 C20.76 159.98, 12.34 160.97, 0 160.01 M0 160.01 C2.29 95.03, 2.04 33.99, 0 0 M0 160.01 C-1.6 127.43, -0.62 95.15, 0 0" stroke="#000" stroke-width="1" fill="none"></path></g><g stroke-linecap="round" transform="translate(122.01481628126817 14.294136681227315) rotate(0 14.567752426746438 90.75007293091375)"><path d="M1.77 -0.9 L28.29 -1.34 L29.57 181.36 L-0.64 181.36" stroke="none" stroke-width="0" fill="#099268"></path><path d="M0 0 C9.42 2.2, 21.27 -0.8, 29.14 0 M0 0 C8.15 0.5, 15.67 0.41, 29.14 0 M29.14 0 C29.96 53.34, 30.66 106.15, 29.14 181.5 M29.14 0 C27.08 45.24, 27.13 91.5, 29.14 181.5 M29.14 181.5 C20.96 183.36, 12.78 181.44, 0 181.5 M29.14 181.5 C20.63 181.29, 10.39 180.62, 0 181.5 M0 181.5 C2.95 142.41, 0 99.45, 0 0 M0 181.5 C1.66 114.72, 1.45 46.7, 0 0" stroke="#000" stroke-width="1" fill="none"></path></g><g stroke-linecap="round" transform="translate(150.19510157749926 13.816489733363255) rotate(0 13.851322891106804 92.89940985783574)"><path d="M-1.22 -1.18 L26.8 -0.87 L28.6 187.18 L1.33 185.3" stroke="none" stroke-width="0" fill="#099268"></path><path d="M0 0 C8.12 -0.24, 18.7 -0.98, 27.7 0 M0 0 C10.63 -0.41, 19.99 -0.58, 27.7 0 M27.7 0 C28.17 41.54, 27.8 85.81, 27.7 185.8 M27.7 0 C27.9 74.16, 28.26 147.92, 27.7 185.8 M27.7 185.8 C17.8 187.07, 5.94 184.32, 0 185.8 M27.7 185.8 C16.25 186.58, 7.45 185.84, 0 185.8 M0 185.8 C-0.09 138.21, -0.9 91.22, 0 0 M0 185.8 C-1.27 130.73, -1.71 76.45, 0 0" stroke="#000" stroke-width="1" fill="none"></path></g><g stroke-linecap="round" transform="translate(177.89774735971287 15.727010620199849) rotate(0 10.507905763757776 91.22770501108454)"><path d="M-0.2 -1.56 L21.94 1.42 L19.69 180.73 L1.51 183.09" stroke="none" stroke-width="0" fill="#099268"></path><path d="M0 0 C6.49 -1.78, 9.71 -0.84, 21.02 0 M0 0 C6.28 0.82, 10.53 -0.54, 21.02 0 M21.02 0 C23.08 45.63, 20.81 92.45, 21.02 182.46 M21.02 0 C22.61 45.37, 21.46 88.41, 21.02 182.46 M21.02 182.46 C17.07 180.96, 9.67 183.63, 0 182.46 M21.02 182.46 C15.36 181.73, 8.71 183.52, 0 182.46 M0 182.46 C2.02 124.63, -0.38 67.89, 0 0 M0 182.46 C1.04 122.69, 0.83 62.94, 0 0" stroke="#000" stroke-width="1" fill="none"></path></g><g stroke-linecap="round" transform="translate(199.3911984012459 17.637538940883076) rotate(0 11.224350167090677 87.40664836971808)"><path d="M-0.07 0.6 L22.54 -1.87 L23.74 175.25 L-0.71 175.11" stroke="none" stroke-width="0" fill="#099268"></path><path d="M0 0 C5.33 -1.07, 13.16 0.05, 22.45 0 M0 0 C7.53 -0.55, 14.66 -0.99, 22.45 0 M22.45 0 C20.89 48.49, 22.14 96.91, 22.45 174.81 M22.45 0 C22.88 48.14, 22.53 95.37, 22.45 174.81 M22.45 174.81 C13.89 175.12, 6.59 174.18, 0 174.81 M22.45 174.81 C16.48 174.15, 11.96 174.54, 0 174.81 M0 174.81 C-3.25 121.69, -0.28 71.29, 0 0 M0 174.81 C-0.34 129.72, -0.62 84.3, 0 0" stroke="#000" stroke-width="1" fill="none"></path></g><g stroke-linecap="round" transform="translate(222.79514802807557 24.324402930967665) rotate(0 10.269100874442358 80.95861900433547)"><path d="M0.86 -1.46 L20.37 -1.53 L21.31 163.35 L-1.36 163.02" stroke="none" stroke-width="0" fill="#099268"></path><path d="M0 0 C4.16 0.64, 11.26 1.07, 20.54 0 M0 0 C6.68 -0.76, 12.48 -0.5, 20.54 0 M20.54 0 C22.36 40.24, 21.91 85.01, 20.54 161.92 M20.54 0 C19.13 57.31, 19.48 115.89, 20.54 161.92 M20.54 161.92 C15.83 161.39, 11.35 162.68, 0 161.92 M20.54 161.92 C14.17 162.83, 9.63 162.95, 0 161.92 M0 161.92 C1.79 102.55, 1.7 45.92, 0 0 M0 161.92 C-0.12 101.33, -0.73 40.9, 0 0" stroke="#000" stroke-width="1" fill="none"></path></g><g stroke-linecap="round" transform="translate(243.8109298202046 31.011252053358987) rotate(0 7.880933039741649 74.74940196211497)"><path d="M0.07 -1 L15.21 -0.46 L16.74 148.93 L0.98 149.99" stroke="none" stroke-width="0" fill="#099268"></path><path d="M0 0 C3.06 0.79, 7.11 0.2, 15.76 0 M0 0 C3.63 -0.27, 7.22 0.4, 15.76 0 M15.76 0 C15.77 56.68, 16.79 111.31, 15.76 149.5 M15.76 0 C15.5 59.88, 15.85 119.24, 15.76 149.5 M15.76 149.5 C12.14 149.33, 7.59 150.05, 0 149.5 M15.76 149.5 C11.56 149.26, 7.84 149.72, 0 149.5 M0 149.5 C1.51 96.2, 0.61 41.85, 0 0 M0 149.5 C-0.06 91.87, 0.91 35.34, 0 0" stroke="#000" stroke-width="1" fill="none"></path></g><g stroke-linecap="round" transform="translate(260.52807492772286 41.04150343540607) rotate(0 7.642083547346374 64.48031595536588)"><path d="M-0.01 0.55 L14.87 0.84 L15.58 128.38 L0.25 128.02" stroke="none" stroke-width="0" fill="#099268"></path><path d="M0 0 C4.89 0.63, 10.52 -0.28, 15.28 0 M0 0 C6.09 0.2, 11.82 -0.21, 15.28 0 M15.28 0 C14.76 42.87, 14.9 86.82, 15.28 128.96 M15.28 0 C16.19 45.34, 16.02 90.6, 15.28 128.96 M15.28 128.96 C8.85 128.8, 3.97 128.47, 0 128.96 M15.28 128.96 C9.8 129.26, 3.57 129.2, 0 128.96 M0 128.96 C-0.53 84.52, 0.7 40.16, 0 0 M0 128.96 C0.31 87.61, 0.1 46.45, 0 0" stroke="#000" stroke-width="1" fill="none"></path></g><g stroke-linecap="round" transform="translate(275.8122420224156 50.59415990651553) rotate(0 5.731584962049737 55.1664866751118)"><path d="M-0.9 -0.04 L10.95 -0.06 L11.87 110.85 L-0.22 110.05" stroke="none" stroke-width="0" fill="#099268"></path><path d="M0 0 C3.95 -0.08, 7.94 0.35, 11.46 0 M0 0 C3.92 -0.16, 7.54 0.09, 11.46 0 M11.46 0 C11.49 24.97, 11.15 49.87, 11.46 110.33 M11.46 0 C10.76 43.88, 11.01 87.67, 11.46 110.33 M11.46 110.33 C6.96 110.81, 2.26 110.84, 0 110.33 M11.46 110.33 C7.97 110.44, 4.92 110.07, 0 110.33 M0 110.33 C0.66 81.01, -0.36 52.39, 0 0 M0 110.33 C-0.46 81.21, -0.77 52.79, 0 0" stroke="#000" stroke-width="1" fill="none"></path></g><g stroke-linecap="round" transform="translate(286.7978616386572 61.102065670273305) rotate(0 5.492750337347729 45.136212991524815)"><path d="M-0.13 -0.75 L11.05 0.44 L10.45 89.64 L-0.37 90.65" stroke="none" stroke-width="0" fill="#099268"></path><path d="M0 0 C3.25 -0.23, 5.33 -0.29, 10.99 0 M0 0 C3.65 -0.21, 7 0.26, 10.99 0 M10.99 0 C11.53 27.06, 11.68 55.81, 10.99 90.27 M10.99 0 C11.22 25.91, 10.47 51.53, 10.99 90.27 M10.99 90.27 C7.79 89.86, 4.7 90.6, 0 90.27 M10.99 90.27 C7.09 90.49, 3.7 90.49, 0 90.27 M0 90.27 C-0.25 67.14, -0.02 44.16, 0 0 M0 90.27 C-0.16 58.72, 0.01 26.21, 0 0" stroke="#000" stroke-width="1" fill="none"></path></g><g stroke-linecap="round" transform="translate(297.3057525347217 88.32708680616275) rotate(0 5.970389851365212 25.553312572214935)"><path d="M0.7 0.07 L11.04 -0.83 L12.82 50.66 L-0.62 51.95" stroke="none" stroke-width="0" fill="#099268"></path><path d="M0 0 C3.52 0.54, 6.56 0.4, 11.94 0 M0 0 C3.81 -0.05, 7.27 0.28, 11.94 0 M11.94 0 C12.7 17.65, 11.57 33.65, 11.94 51.11 M11.94 0 C12.32 13.08, 11.7 26.94, 11.94 51.11 M11.94 51.11 C8.25 50.81, 4.18 50.95, 0 51.11 M11.94 51.11 C9.66 51.15, 7.14 51.1, 0 51.11 M0 51.11 C-0.25 39.25, 0.44 25.92, 0 0 M0 51.11 C-0.16 40.3, -0.13 30.52, 0 0" stroke="#000" stroke-width="1" fill="none"></path></g></svg>
