<svg class="dSVG" version="1.1" xmlns="http://www.w3.org/2000/svg" viewBox="0 0 330.7843017578125 218.0392303466797" width="250"  filter="invert(93%) hue-rotate(180deg)">
<g transform="translate(255.0980224609375 22.745086669921875) rotate(0 -89.70587158203125 86.27452850341797)" stroke="none">
<path fill="#1e1e1e" d="M -0.75,3.03 Q -0.75,3.03 -6.37,1.55 -11.99,0.08 -20.24,-1.68 -28.49,-3.44 -40.37,-5.03 -52.25,-6.63 -67.39,-7.60 -82.54,-8.57 -97.42,-8.99 -112.30,-9.42 -125.79,-7.92 -139.28,-6.42 -151.39,-3.28 -163.50,-0.14 -175.36,4.25 -187.22,8.65 -196.36,13.83 -205.49,19.02 -212.68,24.53 -219.88,30.05 -225.09,35.67 -230.31,41.29 -233.85,46.92 -237.39,52.55 -238.81,58.06 -240.23,63.57 -240.86,69.51 -241.49,75.45 -240.11,81.61 -238.72,87.77 -236.52,92.85 -234.31,97.93 -229.56,103.85 -224.81,109.77 -218.28,116.84 -211.74,123.92 -203.96,130.81 -196.17,137.70 -186.99,144.55 -177.81,151.39 -167.49,157.64 -157.18,163.89 -145.87,168.75 -134.56,173.61 -120.38,176.19 -106.19,178.77 -89.51,179.60 -72.83,180.43 -54.67,177.42 -36.51,174.42 -18.78,167.57 -1.06,160.72 12.87,152.51 26.80,144.31 36.31,136.67 45.82,129.02 50.61,123.63 55.40,118.24 57.58,113.39 59.76,108.53 60.68,102.99 61.59,97.46 60.88,90.80 60.18,84.14 58.22,76.57 56.27,68.99 53.51,62.20 50.75,55.40 47.93,50.32 45.11,45.25 42.26,41.18 39.41,37.10 35.75,33.21 32.09,29.32 26.90,24.58 21.70,19.84 15.10,15.37 8.50,10.91 2.41,7.92 -3.68,4.94 -7.64,3.39 -11.61,1.85 -13.43,1.41 -15.25,0.97 -15.69,0.71 -16.12,0.46 -16.45,0.07 -16.78,-0.30 -16.97,-0.77 -17.17,-1.24 -17.20,-1.75 -17.23,-2.26 -17.09,-2.75 -16.96,-3.24 -16.68,-3.66 -16.40,-4.08 -16.00,-4.39 -15.59,-4.70 -15.11,-4.86 -14.63,-5.03 -14.13,-5.03 -13.62,-5.04 -13.14,-4.88 -12.66,-4.72 -12.25,-4.41 -11.84,-4.11 -11.56,-3.69 -11.27,-3.27 -11.13,-2.79 -10.99,-2.30 -11.02,-1.79 -11.04,-1.28 -11.22,-0.81 -11.41,-0.34 -11.74,0.04 -12.06,0.43 -12.49,0.69 -12.93,0.96 -13.42,1.07 -13.92,1.18 -14.42,1.13 -14.93,1.08 -15.39,0.87 -15.85,0.66 -16.22,0.31 -16.59,-0.02 -16.83,-0.47 -17.07,-0.92 -17.16,-1.42 -17.24,-1.92 -17.16,-2.42 -17.09,-2.92 -16.85,-3.37 -16.62,-3.82 -16.25,-4.17 -15.88,-4.52 -15.42,-4.74 -14.97,-4.95 -14.46,-5.01 -13.96,-5.07 -13.46,-4.96 -12.96,-4.86 -12.97,-4.86 -12.97,-4.86 -11.33,-3.95 -9.70,-3.03 -5.53,-1.40 -1.36,0.22 5.04,3.39 11.44,6.56 18.34,11.26 25.24,15.96 30.58,20.85 35.93,25.73 39.82,29.91 43.72,34.10 46.71,38.40 49.70,42.71 52.66,48.06 55.61,53.42 58.49,60.55 61.36,67.69 63.38,75.65 65.40,83.61 66.09,90.96 66.77,98.30 65.66,104.49 64.54,110.69 61.95,116.19 59.36,121.69 54.24,127.40 49.12,133.11 39.29,140.97 29.47,148.84 15.15,157.23 0.83,165.62 -17.40,172.61 -35.64,179.60 -54.36,182.64 -73.07,185.67 -90.11,184.80 -107.14,183.94 -121.87,181.19 -136.61,178.44 -148.25,173.42 -159.90,168.39 -170.42,162.00 -180.95,155.61 -190.31,148.62 -199.66,141.64 -207.63,134.56 -215.60,127.49 -222.27,120.26 -228.93,113.04 -234.03,106.54 -239.12,100.04 -241.49,94.47 -243.86,88.89 -245.29,81.93 -246.72,74.97 -246.02,68.59 -245.32,62.22 -243.60,56.01 -241.87,49.79 -238.03,43.75 -234.18,37.71 -228.64,31.78 -223.10,25.86 -215.61,20.13 -208.11,14.40 -198.60,9.03 -189.09,3.66 -176.97,-0.83 -164.85,-5.33 -152.37,-8.56 -139.89,-11.79 -126.02,-13.33 -112.16,-14.87 -97.18,-14.48 -82.19,-14.09 -66.85,-13.15 -51.51,-12.22 -39.41,-10.66 -27.31,-9.10 -18.93,-7.40 -10.54,-5.71 -4.89,-4.37 0.75,-3.03 1.10,-2.89 1.46,-2.76 1.77,-2.54 2.07,-2.33 2.32,-2.04 2.57,-1.76 2.75,-1.43 2.92,-1.09 3.01,-0.73 3.10,-0.36 3.10,0.01 3.10,0.38 3.00,0.75 2.91,1.11 2.74,1.45 2.56,1.78 2.31,2.06 2.06,2.34 1.75,2.55 1.44,2.77 1.08,2.90 0.73,3.03 0.36,3.08 -0.01,3.12 -0.38,3.07 -0.75,3.03 -0.75,3.03 L -0.75,3.03 Z"></path></g><g stroke-linecap="round" transform="translate(28.058216775262736 61.46609268734039) rotate(0 22.638244110767573 34.108070576259024)"><path d="M-1.33 -1.78 L43.48 -1.63 L46.31 69.12 L0.71 70.11" stroke="none" stroke-width="0" fill="#099268"></path><path d="M0 0 C8.62 1.17, 18.56 1.34, 45.28 0 M0 0 C11.65 0.87, 21.94 0.72, 45.28 0 M45.28 0 C43.88 25.49, 46.34 54.79, 45.28 68.22 M45.28 0 C44.96 17.82, 44.81 35.78, 45.28 68.22 M45.28 68.22 C32.79 66.94, 18.86 67.18, 0 68.22 M45.28 68.22 C35.2 67.94, 27.02 67.27, 0 68.22 M0 68.22 C-0.72 49.77, -0.6 29.04, 0 0 M0 68.22 C1.23 48.3, -0.4 28.25, 0 0" stroke="#ffffff" stroke-width="1" fill="none"></path></g><g stroke-linecap="round" transform="translate(74.64929815437506 29.074623020744184) rotate(0 22.987659853005937 71.05819731172795)"><path d="M-0.96 1.71 L47.51 0.52 L46.97 142.27 L1.73 140.84" stroke="none" stroke-width="0" fill="#099268"></path><path d="M0 0 C19.25 1.03, 33.33 -2.04, 45.98 0 M0 0 C12.84 0.69, 24.77 0.77, 45.98 0 M45.98 0 C48 31.63, 44.56 61.62, 45.98 142.12 M45.98 0 C47.41 56.38, 46.79 110.87, 45.98 142.12 M45.98 142.12 C31.48 140.17, 15.81 143.51, 0 142.12 M45.98 142.12 C28.31 141.53, 9.9 141, 0 142.12 M0 142.12 C-1.29 105.92, -0.84 66.87, 0 0 M0 142.12 C-0.23 107.47, -0.89 73.33, 0 0" stroke="#ffffff" stroke-width="1" fill="none"></path></g><g stroke-linecap="round" transform="translate(121.72533126750636 17.212155926051764) rotate(0 22.987659853005994 89.05281981198067)"><path d="M1.9 1.08 L45.53 1.83 L46.12 178.7 L1.51 176.55" stroke="none" stroke-width="0" fill="#099268"></path><path d="M0 0 C17.76 0.05, 33.88 -1.38, 45.98 0 M0 0 C16.79 0.96, 33.98 0.46, 45.98 0 M45.98 0 C48.98 65.98, 45.53 131.87, 45.98 178.11 M45.98 0 C44.99 57.93, 45.79 116.17, 45.98 178.11 M45.98 178.11 C33.59 177.92, 21.06 178.61, 0 178.11 M45.98 178.11 C28.24 177.27, 11.75 177.96, 0 178.11 M0 178.11 C0.94 130.03, 0.97 84.15, 0 0 M0 178.11 C1.8 111.67, 0.95 46.2, 0 0" stroke="#ffffff" stroke-width="1" fill="none"></path></g><g stroke-linecap="round" transform="translate(214.4377942314411 33.58551187810474) rotate(0 22.987659853005994 72.45582765143342)"><path d="M-0.37 1.6 L45.07 0.93 L44.94 144.93 L0.53 143.17" stroke="none" stroke-width="0" fill="#099268"></path><path d="M0 0 C10.25 0.39, 22.87 -0.33, 45.98 0 M0 0 C11.9 -0.13, 23.78 1.06, 45.98 0 M45.98 0 C48.05 38.76, 48.71 74.21, 45.98 144.91 M45.98 0 C47.15 57.35, 47.25 116.07, 45.98 144.91 M45.98 144.91 C30.3 145.42, 10.26 143.53, 0 144.91 M45.98 144.91 C32.75 143.71, 18.73 145.34, 0 144.91 M0 144.91 C0.73 105.06, -0.59 63.8, 0 0 M0 144.91 C2.05 104.42, 1.08 61.6, 0 0" stroke="#ffffff" stroke-width="1" fill="none"></path></g><g stroke-linecap="round" transform="translate(167.9348290204523 17.110819357979494) rotate(0 22.987659853005994 89.05281981198067)"><path d="M-1.23 0.08 L45.69 -0.7 L45.48 179.28 L1.91 179.18" stroke="none" stroke-width="0" fill="#099268"></path><path d="M0 0 C13.48 -1.75, 29.46 -0.18, 45.98 0 M0 0 C12.32 0.91, 24.54 -0.39, 45.98 0 M45.98 0 C47.04 57.48, 45.66 115.51, 45.98 178.11 M45.98 0 C43.4 62.21, 44.48 126.28, 45.98 178.11 M45.98 178.11 C33.39 176.83, 18.1 177.54, 0 178.11 M45.98 178.11 C34.34 177.83, 25.41 178.13, 0 178.11 M0 178.11 C1.02 143.64, -0.19 105.47, 0 0 M0 178.11 C1.19 138.67, 1.79 99.19, 0 0" stroke="#ffffff" stroke-width="1" fill="none"></path></g><g stroke-linecap="round" transform="translate(262.4642632949119 85.36460423555445) rotate(0 22.987659853005994 26.68309685718134)"><path d="M-1.82 0.11 L44.41 0.48 L47.76 54.29 L-0.25 51.78" stroke="none" stroke-width="0" fill="#099268"></path><path d="M0 0 C15.98 1.57, 35.4 0.25, 45.98 0 M0 0 C14.01 0.38, 28.37 -0.39, 45.98 0 M45.98 0 C44.79 20.21, 45.32 44.08, 45.98 53.37 M45.98 0 C45.51 17.38, 45.48 32.16, 45.98 53.37 M45.98 53.37 C34.63 52.68, 21.29 54.3, 0 53.37 M45.98 53.37 C30.16 54.2, 16.82 53.14, 0 53.37 M0 53.37 C-1.03 42.66, -0.84 29.59, 0 0 M0 53.37 C-0.56 36.31, 0.99 20.12, 0 0" stroke="#ffffff" stroke-width="1" fill="none"></path></g></svg>
