<svg class="dSVG" version="1.1" xmlns="http://www.w3.org/2000/svg" viewBox="0 0 330.7843017578125 218.0392303466797" width="250" filter="invert(193%) hue-rotate(180deg)">
<g stroke-linecap="round" transform="translate(287.9399452376772 72.6068989928117) rotate(0 6.936010879526862 37.367608873184054)">
<path d="M-0.76 -0.85 L14.61 -0.27 L14.39 74.9 L-0.33 75.43" stroke="none" stroke-width="0" fill="#099268"></path><path d="M0 0 C3.07 0.4, 7.15 -0.46, 13.87 0 M0 0 C3.55 -0.15, 6.83 0.04, 13.87 0 M13.87 0 C14.4 24.96, 13.63 52.61, 13.87 74.74 M13.87 0 C14.18 15.06, 13.89 31, 13.87 74.74 M13.87 74.74 C10.69 75.37, 7.75 74.72, 0 74.74 M13.87 74.74 C9.07 74.7, 3.72 74.51, 0 74.74 M0 74.74 C0.56 51.38, 0.05 29.92, 0 0 M0 74.74 C-0.38 47.66, -0.47 19.83, 0 0" stroke="#ffffff" stroke-width="1" fill="none"></path></g><g stroke-linecap="round" transform="translate(274.16455692205795 55.29791915844493) rotate(0 6.936010879526862 53.8301736564604)"><path d="M0.51 0.17 L13.54 0.7 L14.14 108.35 L0.43 106.67" stroke="none" stroke-width="0" fill="#099268"></path><path d="M0 0 C4.54 0.56, 10.32 0.52, 13.87 0 M0 0 C3.87 -0.14, 7.12 0.22, 13.87 0 M13.87 0 C12.88 22.26, 13.27 45.5, 13.87 107.66 M13.87 0 C13.5 25.18, 13.99 50.81, 13.87 107.66 M13.87 107.66 C8.94 107.92, 3.42 108.3, 0 107.66 M13.87 107.66 C10.01 107.74, 6.41 107.85, 0 107.66 M0 107.66 C0.57 82.84, 0.15 56.01, 0 0 M0 107.66 C-0.27 67.38, 0.48 27.82, 0 0" stroke="#ffffff" stroke-width="1" fill="none"></path></g><g stroke-linecap="round" transform="translate(260.2997608659773 43.64422597112508) rotate(0 6.936010879526862 62.287994494400664)"><path d="M-0.16 0.1 L13.37 -0.84 L13.82 123.76 L0.78 124.77" stroke="none" stroke-width="0" fill="#099268"></path><path d="M0 0 C3.67 0.65, 6.86 -0.22, 13.87 0 M0 0 C4.27 0.19, 8.93 -0.23, 13.87 0 M13.87 0 C14.17 48, 15.03 97.38, 13.87 124.58 M13.87 0 C13.26 41.12, 13.65 81.5, 13.87 124.58 M13.87 124.58 C8.92 125.15, 4.45 124.52, 0 124.58 M13.87 124.58 C9.36 124.88, 4.47 124.42, 0 124.58 M0 124.58 C-0.12 84.19, -0.96 41.68, 0 0 M0 124.58 C-0.39 81.91, -0.01 39.39, 0 0" stroke="#ffffff" stroke-width="1" fill="none"></path></g><g stroke-linecap="round" transform="translate(246.4047446394568 32.76989160996379) rotate(0 6.936010879526862 71.34995076514613)"><path d="M-0.05 -0.82 L14.65 0.2 L14.37 143.1 L-0.4 143.28" stroke="none" stroke-width="0" fill="#099268"></path><path d="M0 0 C5.52 0.42, 11.12 -0.21, 13.87 0 M0 0 C5.37 0.21, 10.04 0.03, 13.87 0 M13.87 0 C14.77 34.97, 14.62 70.22, 13.87 142.7 M13.87 0 C14.19 47.51, 14.09 94.14, 13.87 142.7 M13.87 142.7 C8.95 142.63, 3.44 143.35, 0 142.7 M13.87 142.7 C8.63 142.94, 2.84 142.8, 0 142.7 M0 142.7 C0.77 88.87, 0.92 34.14, 0 0 M0 142.7 C-0.2 96.67, -0.37 50.13, 0 0" stroke="#ffffff" stroke-width="1" fill="none"></path></g><g stroke-linecap="round" transform="translate(233.11386854707484 27.332705624049993) rotate(0 6.936010879526862 78.5995242441424)"><path d="M0.5 0.4 L13.48 0.58 L14.56 156.69 L-0.49 157.49" stroke="none" stroke-width="0" fill="#099268"></path><path d="M0 0 C5.41 0.32, 9.52 0.64, 13.87 0 M0 0 C4.67 0.3, 9.82 0.1, 13.87 0 M13.87 0 C14.29 40.07, 13.1 80.34, 13.87 157.2 M13.87 0 C14.47 59.57, 14.02 119.11, 13.87 157.2 M13.87 157.2 C10.42 157.85, 5.46 157.48, 0 157.2 M13.87 157.2 C8.88 157.06, 3.14 157.38, 0 157.2 M0 157.2 C-0.23 107.65, 0.3 57.59, 0 0 M0 157.2 C0.37 108.04, 0.78 59.8, 0 0" stroke="#ffffff" stroke-width="1" fill="none"></path></g><g stroke-linecap="round" transform="translate(219.52095999828953 20.989337644928185) rotate(0 6.936010879526862 84.33877089445892)"><path d="M0.68 -0.51 L13.39 0.29 L13.02 168.64 L-0.99 168.32" stroke="none" stroke-width="0" fill="#099268"></path><path d="M0 0 C5.1 -0.23, 9.5 -0.42, 13.87 0 M0 0 C5.18 0.03, 10.45 0.08, 13.87 0 M13.87 0 C13.9 53, 12.91 106.29, 13.87 168.68 M13.87 0 C13.74 55.38, 14.25 111.04, 13.87 168.68 M13.87 168.68 C9.1 168.03, 3.49 169.24, 0 168.68 M13.87 168.68 C10.41 168.91, 6.64 168.79, 0 168.68 M0 168.68 C-0.54 114.65, -1.48 61.56, 0 0 M0 168.68 C-0.41 132.06, -0.86 95.33, 0 0" stroke="#ffffff" stroke-width="1" fill="none"></path></g><g stroke-linecap="round" transform="translate(204.71975237589413 17.3645532560966) rotate(0 6.936010879526862 88.56767191076244)"><path d="M-0.85 -0.04 L12.88 -0.35 L14.86 177.27 L0.54 177.36" stroke="none" stroke-width="0" fill="#099268"></path><path d="M0 0 C4.42 0.27, 7.87 -0.28, 13.87 0 M0 0 C4.4 -0.33, 8.88 0.25, 13.87 0 M13.87 0 C13.96 57.54, 14.17 115.21, 13.87 177.14 M13.87 0 C15.13 55.51, 14.86 111.89, 13.87 177.14 M13.87 177.14 C10.72 176.8, 8.52 177.3, 0 177.14 M13.87 177.14 C8.96 177.41, 3.87 177.19, 0 177.14 M0 177.14 C-0.07 133.63, 0.94 89.06, 0 0 M0 177.14 C0.69 116.6, 0.11 56.72, 0 0" stroke="#ffffff" stroke-width="1" fill="none"></path></g><g stroke-linecap="round" transform="translate(60.936694701577835 34.88432096211568) rotate(0 6.936010879526862 62.74109254300461)"><path d="M0.99 0.14 L14.41 0.23 L14.63 125.62 L-0.49 125.41" stroke="none" stroke-width="0" fill="#099268"></path><path d="M0 0 C4.73 -0.42, 9.46 0.12, 13.87 0 M0 0 C3.02 -0.13, 6.14 0.04, 13.87 0 M13.87 0 C14.33 37.19, 15.04 73.33, 13.87 125.48 M13.87 0 C13.58 31.98, 14.46 63.34, 13.87 125.48 M13.87 125.48 C10.89 125.1, 7.25 125.61, 0 125.48 M13.87 125.48 C8.49 125.2, 3.43 125.21, 0 125.48 M0 125.48 C0.28 77.66, 0.45 31.31, 0 0 M0 125.48 C-0.12 94.25, -0.19 62.88, 0 0" stroke="#ffffff" stroke-width="1" fill="none"></path></g><g stroke-linecap="round" transform="translate(46.13550588451608 43.9463054408609) rotate(0 6.936010879526862 52.168816495579335)"><path d="M0.76 0.14 L13.38 -0.07 L13.34 105.21 L-0.73 104.26" stroke="none" stroke-width="0" fill="#099268"></path><path d="M0 0 C2.64 0.31, 7.06 0.17, 13.87 0 M0 0 C3.83 0.15, 7.7 0.03, 13.87 0 M13.87 0 C13.85 41.5, 15.12 81.42, 13.87 104.34 M13.87 0 C14 35.5, 14.36 70.86, 13.87 104.34 M13.87 104.34 C11.02 104.24, 7.19 104, 0 104.34 M13.87 104.34 C11.15 104.35, 8.06 104.42, 0 104.34 M0 104.34 C-0.81 76.69, -0.01 49.16, 0 0 M0 104.34 C1.01 73.53, 0.79 42.7, 0 0" stroke="#ffffff" stroke-width="1" fill="none"></path></g><g stroke-linecap="round" transform="translate(32.24048965799511 56.028905966299305) rotate(0 6.936010879526862 39.18000811959976)"><path d="M-0.53 0.88 L13.14 -0.07 L13.43 77.42 L0.13 78.08" stroke="none" stroke-width="0" fill="#099268"></path><path d="M0 0 C4.66 0.54, 9.8 -0.09, 13.87 0 M0 0 C5.17 0.29, 9.98 -0.17, 13.87 0 M13.87 0 C14.57 26.68, 13.72 51.24, 13.87 78.36 M13.87 0 C13.65 27.02, 14.02 54.2, 13.87 78.36 M13.87 78.36 C9.35 78.29, 5.43 78.87, 0 78.36 M13.87 78.36 C9.3 78.59, 5.24 78.21, 0 78.36 M0 78.36 C-0.16 57.67, -0.47 39.95, 0 0 M0 78.36 C0.17 53.84, -0.46 29.15, 0 0" stroke="#ffffff" stroke-width="1" fill="none"></path></g><g stroke-linecap="round" transform="translate(17.74137090800241 76.87139739674734) rotate(0 6.936010879526862 17.73336950301342)"><path d="M-0.44 -0.94 L14 -0.28 L13.83 35.67 L0.36 35.54" stroke="none" stroke-width="0" fill="#099268"></path><path d="M0 0 C5.61 -0.05, 10.64 0.67, 13.87 0 M0 0 C5.45 0.31, 10.36 0.16, 13.87 0 M13.87 0 C14.22 13.58, 14.37 26.27, 13.87 35.47 M13.87 0 C13.82 11.5, 13.65 22.48, 13.87 35.47 M13.87 35.47 C9.92 35.87, 5.97 35.25, 0 35.47 M13.87 35.47 C8.74 35.53, 3.65 35.42, 0 35.47 M0 35.47 C0.2 28.88, 0.29 21.97, 0 0 M0 35.47 C-0.18 24.77, -0.28 13.17, 0 0" stroke="#ffffff" stroke-width="1" fill="none"></path></g><g stroke-linecap="round" transform="translate(190.30522001460076 15.775681252005597) rotate(0 6.936010879526862 91.43730463858722)"><path d="M0.41 -0.97 L14.41 0.53 L13.88 183.45 L0.39 183.59" stroke="none" stroke-width="0" fill="#099268"></path><path d="M0 0 C3.42 0.45, 7.51 0.17, 13.87 0 M0 0 C4.86 0.25, 10.61 0.1, 13.87 0 M13.87 0 C14.64 42.89, 13.97 83.52, 13.87 182.87 M13.87 0 C14 60.91, 13.99 122.36, 13.87 182.87 M13.87 182.87 C10.61 183.01, 8.02 183.26, 0 182.87 M13.87 182.87 C10.39 182.54, 6.21 182.83, 0 182.87 M0 182.87 C-0.12 127.64, 0.16 70.64, 0 0 M0 182.87 C-0.09 132.52, -0.1 82.42, 0 0" stroke="#ffffff" stroke-width="1" fill="none"></path></g><g stroke-linecap="round" transform="translate(175.5039935868724 15.171564624533573) rotate(0 6.936010879526862 92.94762206460047)"><path d="M0.01 0.58 L14.27 0.72 L13.04 185.58 L0.8 185.69" stroke="none" stroke-width="0" fill="#099268"></path><path d="M0 0 C5.56 0.24, 10.58 -0.69, 13.87 0 M0 0 C5.11 0.19, 10.9 0.03, 13.87 0 M13.87 0 C13.76 72.66, 13.51 146.46, 13.87 185.9 M13.87 0 C14.1 40.22, 14.64 80.68, 13.87 185.9 M13.87 185.9 C9.29 186.45, 4.77 186.54, 0 185.9 M13.87 185.9 C10.93 185.96, 8.09 185.91, 0 185.9 M0 185.9 C-0.55 119.07, -0.96 52.05, 0 0 M0 185.9 C0.32 131.74, 0.38 78.82, 0 0" stroke="#ffffff" stroke-width="1" fill="none"></path></g><g stroke-linecap="round" transform="translate(161.0049124475463 13.66121899052041) rotate(0 6.936010879526862 92.94761971393385)"><path d="M-0.83 -0.31 L14.67 -0.2 L14.72 186.24 L-0.95 185.92" stroke="none" stroke-width="0" fill="#099268"></path><path d="M0 0 C5.28 0.53, 9.67 -0.42, 13.87 0 M0 0 C5.38 -0.19, 9.98 0.11, 13.87 0 M13.87 0 C13.14 52.16, 13.41 102.26, 13.87 185.9 M13.87 0 C14.26 49.39, 14.44 98.09, 13.87 185.9 M13.87 185.9 C8.08 185.79, 3.46 185.99, 0 185.9 M13.87 185.9 C9.67 186.01, 4.85 185.81, 0 185.9 M0 185.9 C0.5 129.15, 0.9 73.07, 0 0 M0 185.9 C-0.49 148.36, -0.3 110.6, 0 0" stroke="#ffffff" stroke-width="1" fill="none"></path></g><g stroke-linecap="round" transform="translate(146.80780734862287 13.359172430117752) rotate(0 6.936010879526862 93.40072011320446)"><path d="M0.85 0.35 L12.92 0.03 L13.31 187.13 L-0.61 186.75" stroke="none" stroke-width="0" fill="#099268"></path><path d="M0 0 C5.54 0.45, 10.31 0.69, 13.87 0 M0 0 C3.39 0.01, 7.17 -0.31, 13.87 0 M13.87 0 C12.99 68.56, 13.14 136.63, 13.87 186.8 M13.87 0 C14.73 66.34, 14.8 132.71, 13.87 186.8 M13.87 186.8 C10.17 187.1, 6.25 187.22, 0 186.8 M13.87 186.8 C9.27 186.56, 4.6 186.75, 0 186.8 M0 186.8 C-1.24 133.54, 0.26 79.22, 0 0 M0 186.8 C-0.78 119.85, 0.03 53.11, 0 0" stroke="#ffffff" stroke-width="1" fill="none"></path></g><g stroke-linecap="round" transform="translate(133.21484238383823 14.567429191728422) rotate(0 6.936010879526862 91.13522987018467)"><path d="M-0.57 0.33 L13.26 -0.05 L13.65 182.47 L0.02 181.68" stroke="none" stroke-width="0" fill="#099268"></path><path d="M0 0 C4.61 -0.35, 10.16 -0.22, 13.87 0 M0 0 C4.53 -0.14, 8.35 -0.07, 13.87 0 M13.87 0 C14.24 61.21, 13.41 122.14, 13.87 182.27 M13.87 0 C14.56 46.27, 14.7 92.66, 13.87 182.27 M13.87 182.27 C9.34 181.92, 4.19 182.34, 0 182.27 M13.87 182.27 C10.58 182.36, 7.51 181.93, 0 182.27 M0 182.27 C0.09 118.27, 0.23 52.64, 0 0 M0 182.27 C-0.31 133.44, -1.21 84.28, 0 0" stroke="#ffffff" stroke-width="1" fill="none"></path></g><g stroke-linecap="round" transform="translate(119.01775609024844 15.77569065467219) rotate(0 6.936010879526862 89.32284237710226)"><path d="M-0.22 0.2 L13.89 -0.59 L14.05 178.98 L0.08 179.19" stroke="none" stroke-width="0" fill="#099268"></path><path d="M0 0 C3.67 0.49, 6.61 0.47, 13.87 0 M0 0 C3.5 -0.05, 6.82 0.22, 13.87 0 M13.87 0 C13.17 63.73, 12.77 125.44, 13.87 178.65 M13.87 0 C14.13 53.02, 14.22 106.16, 13.87 178.65 M13.87 178.65 C10.05 178.58, 7.05 178.57, 0 178.65 M13.87 178.65 C9.49 178.76, 4.73 178.78, 0 178.65 M0 178.65 C-0.95 118.82, -0.84 58.24, 0 0 M0 178.65 C0.56 118.98, 0.54 58.95, 0 0" stroke="#ffffff" stroke-width="1" fill="none"></path></g><g stroke-linecap="round" transform="translate(104.8207262126582 19.400470342170365) rotate(0 6.936010879526862 83.58360512945237)"><path d="M0.18 0.33 L13.96 0.55 L13.26 167.05 L0.7 167.96" stroke="none" stroke-width="0" fill="#099268"></path><path d="M0 0 C4.71 -0.57, 9.96 0.18, 13.87 0 M0 0 C4.05 -0.13, 8 -0.2, 13.87 0 M13.87 0 C13.12 64.99, 13.33 130.31, 13.87 167.17 M13.87 0 C14.09 50.69, 14.39 101.3, 13.87 167.17 M13.87 167.17 C10.06 167.44, 5.16 167.53, 0 167.17 M13.87 167.17 C9.11 167.46, 3.78 167.1, 0 167.17 M0 167.17 C0.52 102.66, 0.2 39.48, 0 0 M0 167.17 C0.4 111.59, 0.52 55.51, 0 0" stroke="#ffffff" stroke-width="1" fill="none"></path></g><g stroke-linecap="round" transform="translate(90.32158865733209 23.327320096737765) rotate(0 6.936010879526862 79.05262229274632)"><path d="M-0.61 -0.12 L14.57 0.79 L13.5 157.91 L-0.08 157.99" stroke="none" stroke-width="0" fill="#099268"></path><path d="M0 0 C2.97 0.09, 6.63 0.34, 13.87 0 M0 0 C4.09 -0.27, 7.49 0.02, 13.87 0 M13.87 0 C14.05 48.87, 14.34 95.97, 13.87 158.11 M13.87 0 C13.86 43.43, 13.85 87.12, 13.87 158.11 M13.87 158.11 C9.51 158.15, 4.81 158.42, 0 158.11 M13.87 158.11 C8.99 158.01, 3.85 158.2, 0 158.11 M0 158.11 C0.31 125.05, -0.07 93, 0 0 M0 158.11 C0.08 107.64, 0.03 57.11, 0 0" stroke="#ffffff" stroke-width="1" fill="none"></path></g><g stroke-linecap="round" transform="translate(75.52039984026987 28.160363597846526) rotate(0 6.936010879526862 71.3499636938127)"><path d="M-0.37 -0.19 L13.79 -0.11 L13.41 142.57 L-0.24 143.56" stroke="none" stroke-width="0" fill="#099268"></path><path d="M0 0 C4.2 0.48, 8.46 0.58, 13.87 0 M0 0 C2.98 0.06, 6.08 0.02, 13.87 0 M13.87 0 C13.86 51.38, 13.45 102.57, 13.87 142.7 M13.87 0 C13.99 40.72, 14.05 82.67, 13.87 142.7 M13.87 142.7 C10.2 142.15, 5.32 143.28, 0 142.7 M13.87 142.7 C9.66 142.73, 5.91 142.84, 0 142.7 M0 142.7 C0.24 108.61, -0.55 74.67, 0 0 M0 142.7 C-0.36 95.11, 0.29 48.04, 0 0" stroke="#ffffff" stroke-width="1" fill="none"></path></g><g transform="translate(255.0980224609375 22.745086669921875) rotate(0 -89.70587158203125 86.27452850341797)" stroke="none"><path fill="#1e1e1e" d="M -0.75,3.03 Q -0.75,3.03 -6.37,1.55 -11.99,0.08 -20.24,-1.68 -28.49,-3.44 -40.37,-5.03 -52.25,-6.63 -67.39,-7.60 -82.54,-8.57 -97.42,-8.99 -112.30,-9.42 -125.79,-7.92 -139.28,-6.42 -151.39,-3.28 -163.50,-0.14 -175.36,4.25 -187.22,8.65 -196.36,13.83 -205.49,19.02 -212.68,24.53 -219.88,30.05 -225.09,35.67 -230.31,41.29 -233.85,46.92 -237.39,52.55 -238.81,58.06 -240.23,63.57 -240.86,69.51 -241.49,75.45 -240.11,81.61 -238.72,87.77 -236.52,92.85 -234.31,97.93 -229.56,103.85 -224.81,109.77 -218.28,116.84 -211.74,123.92 -203.96,130.81 -196.17,137.70 -186.99,144.55 -177.81,151.39 -167.49,157.64 -157.18,163.89 -145.87,168.75 -134.56,173.61 -120.38,176.19 -106.19,178.77 -89.51,179.60 -72.83,180.43 -54.67,177.42 -36.51,174.42 -18.78,167.57 -1.06,160.72 12.87,152.51 26.80,144.31 36.31,136.67 45.82,129.02 50.61,123.63 55.40,118.24 57.58,113.39 59.76,108.53 60.68,102.99 61.59,97.46 60.88,90.80 60.18,84.14 58.22,76.57 56.27,68.99 53.51,62.20 50.75,55.40 47.93,50.32 45.11,45.25 42.26,41.18 39.41,37.10 35.75,33.21 32.09,29.32 26.90,24.58 21.70,19.84 15.10,15.37 8.50,10.91 2.41,7.92 -3.68,4.94 -7.64,3.39 -11.61,1.85 -13.43,1.41 -15.25,0.97 -15.69,0.71 -16.12,0.46 -16.45,0.07 -16.78,-0.30 -16.97,-0.77 -17.17,-1.24 -17.20,-1.75 -17.23,-2.26 -17.09,-2.75 -16.96,-3.24 -16.68,-3.66 -16.40,-4.08 -16.00,-4.39 -15.59,-4.70 -15.11,-4.86 -14.63,-5.03 -14.13,-5.03 -13.62,-5.04 -13.14,-4.88 -12.66,-4.72 -12.25,-4.41 -11.84,-4.11 -11.56,-3.69 -11.27,-3.27 -11.13,-2.79 -10.99,-2.30 -11.02,-1.79 -11.04,-1.28 -11.22,-0.81 -11.41,-0.34 -11.74,0.04 -12.06,0.43 -12.49,0.69 -12.93,0.96 -13.42,1.07 -13.92,1.18 -14.42,1.13 -14.93,1.08 -15.39,0.87 -15.85,0.66 -16.22,0.31 -16.59,-0.02 -16.83,-0.47 -17.07,-0.92 -17.16,-1.42 -17.24,-1.92 -17.16,-2.42 -17.09,-2.92 -16.85,-3.37 -16.62,-3.82 -16.25,-4.17 -15.88,-4.52 -15.42,-4.74 -14.97,-4.95 -14.46,-5.01 -13.96,-5.07 -13.46,-4.96 -12.96,-4.86 -12.97,-4.86 -12.97,-4.86 -11.33,-3.95 -9.70,-3.03 -5.53,-1.40 -1.36,0.22 5.04,3.39 11.44,6.56 18.34,11.26 25.24,15.96 30.58,20.85 35.93,25.73 39.82,29.91 43.72,34.10 46.71,38.40 49.70,42.71 52.66,48.06 55.61,53.42 58.49,60.55 61.36,67.69 63.38,75.65 65.40,83.61 66.09,90.96 66.77,98.30 65.66,104.49 64.54,110.69 61.95,116.19 59.36,121.69 54.24,127.40 49.12,133.11 39.29,140.97 29.47,148.84 15.15,157.23 0.83,165.62 -17.40,172.61 -35.64,179.60 -54.36,182.64 -73.07,185.67 -90.11,184.80 -107.14,183.94 -121.87,181.19 -136.61,178.44 -148.25,173.42 -159.90,168.39 -170.42,162.00 -180.95,155.61 -190.31,148.62 -199.66,141.64 -207.63,134.56 -215.60,127.49 -222.27,120.26 -228.93,113.04 -234.03,106.54 -239.12,100.04 -241.49,94.47 -243.86,88.89 -245.29,81.93 -246.72,74.97 -246.02,68.59 -245.32,62.22 -243.60,56.01 -241.87,49.79 -238.03,43.75 -234.18,37.71 -228.64,31.78 -223.10,25.86 -215.61,20.13 -208.11,14.40 -198.60,9.03 -189.09,3.66 -176.97,-0.83 -164.85,-5.33 -152.37,-8.56 -139.89,-11.79 -126.02,-13.33 -112.16,-14.87 -97.18,-14.48 -82.19,-14.09 -66.85,-13.15 -51.51,-12.22 -39.41,-10.66 -27.31,-9.10 -18.93,-7.40 -10.54,-5.71 -4.89,-4.37 0.75,-3.03 1.10,-2.89 1.46,-2.76 1.77,-2.54 2.07,-2.33 2.32,-2.04 2.57,-1.76 2.75,-1.43 2.92,-1.09 3.01,-0.73 3.10,-0.36 3.10,0.01 3.10,0.38 3.00,0.75 2.91,1.11 2.74,1.45 2.56,1.78 2.31,2.06 2.06,2.34 1.75,2.55 1.44,2.77 1.08,2.90 0.73,3.03 0.36,3.08 -0.01,3.12 -0.38,3.07 -0.75,3.03 -0.75,3.03 L -0.75,3.03 Z"></path></g></svg>
