<svg class="dSVG" version="1.1" xmlns="http://www.w3.org/2000/svg" viewBox="0 0 330.7843017578125 218.0392303466797" width="250">
<g transform="translate(255.0980224609375 22.745086669921875) rotate(0 -89.70587158203125 86.27452850341797)" stroke="none">
<path fill="#fff" d="M -0.75,3.03 Q -0.75,3.03 -6.37,1.55 -11.99,0.08 -20.24,-1.68 -28.49,-3.44 -40.37,-5.03 -52.25,-6.63 -67.39,-7.60 -82.54,-8.57 -97.42,-8.99 -112.30,-9.42 -125.79,-7.92 -139.28,-6.42 -151.39,-3.28 -163.50,-0.14 -175.36,4.25 -187.22,8.65 -196.36,13.83 -205.49,19.02 -212.68,24.53 -219.88,30.05 -225.09,35.67 -230.31,41.29 -233.85,46.92 -237.39,52.55 -238.81,58.06 -240.23,63.57 -240.86,69.51 -241.49,75.45 -240.11,81.61 -238.72,87.77 -236.52,92.85 -234.31,97.93 -229.56,103.85 -224.81,109.77 -218.28,116.84 -211.74,123.92 -203.96,130.81 -196.17,137.70 -186.99,144.55 -177.81,151.39 -167.49,157.64 -157.18,163.89 -145.87,168.75 -134.56,173.61 -120.38,176.19 -106.19,178.77 -89.51,179.60 -72.83,180.43 -54.67,177.42 -36.51,174.42 -18.78,167.57 -1.06,160.72 12.87,152.51 26.80,144.31 36.31,136.67 45.82,129.02 50.61,123.63 55.40,118.24 57.58,113.39 59.76,108.53 60.68,102.99 61.59,97.46 60.88,90.80 60.18,84.14 58.22,76.57 56.27,68.99 53.51,62.20 50.75,55.40 47.93,50.32 45.11,45.25 42.26,41.18 39.41,37.10 35.75,33.21 32.09,29.32 26.90,24.58 21.70,19.84 15.10,15.37 8.50,10.91 2.41,7.92 -3.68,4.94 -7.64,3.39 -11.61,1.85 -14.68,0.85 -17.76,-0.14 -18.17,-0.38 -18.59,-0.63 -18.91,-1.00 -19.23,-1.37 -19.41,-1.82 -19.59,-2.27 -19.62,-2.76 -19.65,-3.24 -19.53,-3.71 -19.40,-4.18 -19.13,-4.59 -18.86,-4.99 -18.47,-5.29 -18.09,-5.58 -17.63,-5.74 -17.17,-5.90 -16.68,-5.90 -16.19,-5.91 -15.73,-5.75 -15.27,-5.60 -14.88,-5.31 -14.49,-5.02 -14.22,-4.62 -13.94,-4.22 -13.81,-3.75 -13.67,-3.28 -13.70,-2.79 -13.72,-2.31 -13.90,-1.86 -14.08,-1.40 -14.39,-1.03 -14.70,-0.66 -15.12,-0.40 -15.53,-0.15 -16.01,-0.04 -16.48,0.05 -16.96,0.01 -17.45,-0.03 -17.89,-0.24 -18.33,-0.44 -18.69,-0.77 -19.04,-1.10 -19.27,-1.53 -19.50,-1.96 -19.59,-2.44 -19.67,-2.92 -19.59,-3.40 -19.52,-3.88 -19.29,-4.31 -19.07,-4.74 -18.72,-5.08 -18.36,-5.41 -17.92,-5.62 -17.48,-5.83 -17.00,-5.88 -16.52,-5.94 -16.04,-5.84 -15.57,-5.74 -15.57,-5.74 -15.57,-5.74 -12.63,-4.39 -9.70,-3.03 -5.53,-1.40 -1.36,0.22 5.04,3.39 11.44,6.56 18.34,11.26 25.24,15.96 30.58,20.85 35.93,25.73 39.82,29.91 43.72,34.10 46.71,38.40 49.70,42.71 52.66,48.06 55.61,53.42 58.49,60.55 61.36,67.69 63.38,75.65 65.40,83.61 66.09,90.96 66.77,98.30 65.66,104.49 64.54,110.69 61.95,116.19 59.36,121.69 54.24,127.40 49.12,133.11 39.29,140.97 29.47,148.84 15.15,157.23 0.83,165.62 -17.40,172.61 -35.64,179.60 -54.36,182.64 -73.07,185.67 -90.11,184.80 -107.14,183.94 -121.87,181.19 -136.61,178.44 -148.25,173.42 -159.90,168.39 -170.42,162.00 -180.95,155.61 -190.31,148.62 -199.66,141.64 -207.63,134.56 -215.60,127.49 -222.27,120.26 -228.93,113.04 -234.03,106.54 -239.12,100.04 -241.49,94.47 -243.86,88.89 -245.29,81.93 -246.72,74.97 -246.02,68.59 -245.32,62.22 -243.60,56.01 -241.87,49.79 -238.03,43.75 -234.18,37.71 -228.64,31.78 -223.10,25.86 -215.61,20.13 -208.11,14.40 -198.60,9.03 -189.09,3.66 -176.97,-0.83 -164.85,-5.33 -152.37,-8.56 -139.89,-11.79 -126.02,-13.33 -112.16,-14.87 -97.18,-14.48 -82.19,-14.09 -66.85,-13.15 -51.51,-12.22 -39.41,-10.66 -27.31,-9.10 -18.93,-7.40 -10.54,-5.71 -4.89,-4.37 0.75,-3.03 1.10,-2.89 1.46,-2.76 1.77,-2.54 2.07,-2.33 2.32,-2.04 2.57,-1.76 2.75,-1.43 2.92,-1.09 3.01,-0.73 3.10,-0.36 3.10,0.01 3.10,0.38 3.00,0.75 2.91,1.11 2.74,1.45 2.56,1.78 2.31,2.06 2.06,2.34 1.75,2.55 1.44,2.77 1.08,2.90 0.73,3.03 0.36,3.08 -0.01,3.12 -0.38,3.07 -0.75,3.03 -0.75,3.03 L -0.75,3.03 Z"></path></g></svg>
